<svg width="56" height="48" viewBox="0 0 56 48" fill="none" xmlns="http://www.w3.org/2000/svg">
<path d="M36.9755 24.8248L37.4908 24.9574C37.4564 25.0825 37.4049 25.1856 37.3276 25.2666C37.2503 25.3475 37.1644 25.4138 37.0528 25.4506C36.9411 25.4948 36.8037 25.5169 36.6319 25.5169C36.4258 25.5169 36.2626 25.4948 36.1251 25.4433C35.9963 25.3917 35.8847 25.3034 35.7902 25.1709C35.6957 25.0457 35.6442 24.8764 35.6442 24.6776C35.6442 24.4126 35.7301 24.2064 35.8932 24.0592C36.0564 23.912 36.2969 23.8457 36.5975 23.8457C36.838 23.8457 37.0184 23.8899 37.1558 23.9709C37.2932 24.0518 37.3963 24.177 37.4564 24.3537L36.9411 24.4494C36.9239 24.3979 36.9067 24.361 36.881 24.339C36.8466 24.3021 36.8123 24.2727 36.7607 24.2506C36.7092 24.2285 36.6577 24.2212 36.6061 24.2212C36.4773 24.2212 36.3742 24.2653 36.3055 24.361C36.254 24.4273 36.2282 24.5377 36.2282 24.6776C36.2282 24.8543 36.2626 24.9794 36.3227 25.0457C36.3828 25.112 36.4773 25.1488 36.589 25.1488C36.7006 25.1488 36.7865 25.1193 36.838 25.0678C36.9067 25.0015 36.9497 24.9279 36.9755 24.8248Z" fill="#393950"/>
<path d="M37.6969 24.6772C37.6969 24.4121 37.7828 24.206 37.9546 24.0587C38.1264 23.9115 38.3669 23.8379 38.6761 23.8379C38.9939 23.8379 39.2344 23.9115 39.4061 24.0514C39.5779 24.1986 39.6638 24.3974 39.6638 24.6624C39.6638 24.8538 39.6294 25.0084 39.5521 25.1262C39.4748 25.244 39.3718 25.3397 39.2258 25.406C39.0883 25.4722 38.908 25.5091 38.7018 25.5091C38.4871 25.5091 38.3153 25.4796 38.1693 25.4207C38.0319 25.3618 37.9202 25.2735 37.8258 25.141C37.7313 25.0084 37.6969 24.8686 37.6969 24.6772ZM38.281 24.6772C38.281 24.8391 38.3153 24.9569 38.384 25.0305C38.4528 25.1041 38.5472 25.141 38.6761 25.141C38.8049 25.141 38.8994 25.1042 38.9681 25.0379C39.0368 24.9643 39.0712 24.8391 39.0712 24.6624C39.0712 24.5078 39.0368 24.3974 38.9595 24.3311C38.8908 24.2575 38.7877 24.2281 38.6675 24.2281C38.5472 24.2281 38.4528 24.2649 38.384 24.3385C38.3153 24.3974 38.281 24.5152 38.281 24.6772Z" fill="#393950"/>
<path d="M39.9644 23.8672H40.7288L41.0209 24.8537L41.3129 23.8672H42.0773V25.4868H41.5963V24.25L41.227 25.4868H40.7975L40.4282 24.25V25.4868H39.9472V23.8672H39.9644Z" fill="#393950"/>
<path d="M42.4552 23.8672H43.4258C43.6405 23.8672 43.7951 23.9114 43.8981 23.9997C44.0012 24.088 44.0527 24.2058 44.0527 24.3678C44.0527 24.5298 43.9926 24.6623 43.881 24.7506C43.7693 24.8463 43.5889 24.8905 43.357 24.8905H43.0393V25.4942H42.4552V23.8672ZM43.0393 24.5592H43.1853C43.2969 24.5592 43.3742 24.5445 43.4258 24.5077C43.4687 24.4709 43.4945 24.4341 43.4945 24.3825C43.4945 24.331 43.4773 24.2868 43.4343 24.25C43.3914 24.2132 43.3227 24.1985 43.211 24.1985H43.0478V24.5592H43.0393Z" fill="#393950"/>
<path d="M44.362 23.8672H44.946V25.0893H45.8564V25.4868H44.362V23.8672Z" fill="#393950"/>
<path d="M46.1485 23.8672H46.7325V25.4868H46.1485V23.8672Z" fill="#393950"/>
<path d="M48.3129 25.215H47.6515L47.5571 25.48H46.9644L47.6773 23.8604H48.3129L49.0258 25.48H48.416L48.3129 25.215ZM48.1926 24.8689L47.9865 24.2873L47.7804 24.8689H48.1926Z" fill="#393950"/>
<path d="M49.2061 23.8672H49.7472L50.4601 24.7653V23.8672H51.0098V25.4868H50.4601L49.7558 24.596V25.4868H49.2061V23.8672Z" fill="#393950"/>
<path d="M51.2675 23.8672H53.0454V24.2647H52.4528V25.4868H51.8687V24.2647H51.2761V23.8672H51.2675Z" fill="#393950"/>
<path d="M29.9497 26.3338L31.6417 25.8774L31.092 24.832C30.6883 25.2663 30.2847 25.8258 29.9497 26.3338ZM29.3742 21.5559L26.0589 15.2246L1.7865 16.4025L8.51165 32.1277L21.4552 28.6307C20.6307 27.6148 20.3301 26.4074 21.2834 25.8185C22.3485 25.1559 23.9546 25.9215 24.9767 27.0037C25.9644 25.5903 28.7386 22.2995 29.3742 21.5559Z" fill="#393950"/>
<path d="M25.3027 19.8004C26.3162 19.8004 27.1407 19.1378 27.1407 18.3133C27.1407 17.4887 26.3162 16.8262 25.3027 16.8262C24.2892 16.8262 23.4647 17.4887 23.4647 18.3133C23.4647 19.1305 24.2892 19.8004 25.3027 19.8004ZM23.7996 20.4409H26.8058V27.1771H23.7996V20.4409Z" fill="#232334"/>
<path d="M22.3137 22.4061C22.3395 22.4135 22.3567 22.4061 22.3567 22.384V20.6761C22.3567 20.654 22.3395 20.6319 22.3137 20.6172C22.3137 20.6172 21.9187 20.3963 20.7162 20.3374C20.6561 20.308 19.5996 20.3006 19.3162 20.3374C14.9358 20.6393 14.7726 23.3558 14.7726 23.4736V24.1362C14.7726 24.2172 14.7726 26.9926 19.3162 27.2356C19.7628 27.265 20.6303 27.2356 20.7162 27.2356C21.7641 27.2356 22.4855 26.9632 22.4855 26.9632C22.5113 26.9558 22.5285 26.9337 22.5285 26.9117V25.3141C22.5285 25.292 22.5113 25.2847 22.4941 25.2994C22.4941 25.2994 22.1677 25.5202 20.742 25.6454C20.3383 25.6822 20.1407 25.6675 19.9947 25.6454C17.9677 25.3509 17.8733 24.0847 17.8733 24.0847C17.8733 24.0626 17.8647 24.0258 17.8647 24.011V23.5252C17.8647 23.5031 17.8647 23.4663 17.8733 23.4515C17.8733 23.4515 18.0107 22.0896 19.9947 21.9423H20.742C21.6095 22.038 22.3137 22.4061 22.3137 22.4061Z" fill="#232334"/>
<path d="M6.42418 27.155C6.42418 27.1771 6.44136 27.1918 6.46712 27.1918H9.39596C9.42173 27.1918 9.4389 27.1771 9.4389 27.155V25.1967C9.4389 25.1747 9.45608 25.1599 9.48185 25.1599C9.48185 25.1599 14.1628 25.447 14.1628 22.7599C14.1628 20.6323 11.2254 20.4041 10.2634 20.4409C10.2463 20.4409 6.46712 20.4409 6.46712 20.4409C6.44136 20.4409 6.42418 20.4556 6.42418 20.4777V27.155ZM9.38737 23.6655V21.9059H10.1088C10.1088 21.9059 11.1481 21.9428 11.234 22.5538C11.2512 22.598 11.2512 22.8998 11.234 22.9145C11.0966 23.6286 10.1947 23.6655 10.1947 23.6655H9.38737Z" fill="#232334"/>
<path d="M25.389 30.4269C25.6294 30.4269 25.8184 30.4269 26.1276 30.3091C27.1926 29.8305 30.7914 22.2992 34.5877 19.9802C34.6135 19.9655 34.6393 19.9434 34.6564 19.9213C34.6822 19.8919 34.6822 19.8624 34.6822 19.8624C34.6822 19.8624 34.6822 19.7078 34.1239 19.7078C30.7485 19.6269 27.2356 25.7005 25.389 28.1005C25.3632 28.1299 25.2429 28.1005 25.2429 28.1005C25.2429 28.1005 24.0061 26.8489 22.9325 26.3704C22.9067 26.363 22.7865 26.3262 22.6577 26.3336C22.5718 26.3336 22.0736 26.4219 21.8417 26.6281C21.5669 26.8784 21.5755 27.0183 21.5755 27.3201C21.5755 27.3422 21.5926 27.4453 21.627 27.4968C21.8932 27.8943 23.0871 29.3078 24.0748 30.0882C24.2209 30.1839 24.4528 30.4269 25.389 30.4269Z" fill="#393950"/>
<path d="M35.584 17.7061H38.3926C38.9509 17.7061 39.3975 17.7723 39.7325 17.8975C40.0761 18.03 40.3595 18.214 40.5742 18.4496C40.7975 18.6926 40.9607 18.9723 41.0552 19.2889C41.1583 19.6054 41.2098 19.9441 41.2098 20.3048C41.2098 20.8643 41.1325 21.2987 40.9865 21.6079C40.8405 21.9171 40.6344 22.1748 40.3681 22.3883C40.1018 22.5944 39.8184 22.7343 39.5178 22.8079C39.1055 22.9036 38.7276 22.9478 38.3926 22.9478H35.584V17.7061ZM37.4736 18.8913V21.7551H37.9374C38.3325 21.7551 38.6159 21.7183 38.7791 21.6447C38.9423 21.5711 39.0798 21.4386 39.1742 21.2545C39.2687 21.0705 39.3202 20.7613 39.3202 20.3416C39.3202 19.7821 39.2172 19.4067 39.0025 19.2005C38.7877 18.9944 38.4442 18.8913 37.946 18.8913H37.4736Z" fill="#393950"/>
<path d="M41.7337 21.2177L43.5374 21.122C43.5804 21.3723 43.6577 21.5637 43.7779 21.6962C43.9755 21.9097 44.2503 22.0128 44.611 22.0128C44.8773 22.0128 45.092 21.9613 45.238 21.8508C45.384 21.7404 45.4613 21.6153 45.4613 21.4754C45.4613 21.3429 45.3926 21.2177 45.2552 21.1073C45.1178 20.9969 44.7914 20.9011 44.2847 20.8054C43.4515 20.6435 42.8675 20.43 42.5067 20.165C42.146 19.8999 41.9742 19.5613 41.9742 19.149C41.9742 18.8766 42.0687 18.6263 42.2491 18.3834C42.4294 18.1404 42.7043 17.9564 43.0736 17.8165C43.4429 17.6766 43.9411 17.6104 44.5767 17.6104C45.3583 17.6104 45.9595 17.7355 46.3632 17.9858C46.7755 18.2361 47.0159 18.6337 47.0932 19.1784L45.3067 19.2668C45.2552 19.0312 45.1607 18.8619 45.0061 18.7515C44.8515 18.641 44.6454 18.5895 44.3791 18.5895C44.1558 18.5895 43.9926 18.6263 43.881 18.7073C43.7693 18.7883 43.7178 18.884 43.7178 19.0018C43.7178 19.0827 43.7607 19.1637 43.8552 19.23C43.9411 19.2962 44.1558 19.3625 44.4908 19.4214C45.3153 19.576 45.908 19.7306 46.2687 19.8852C46.6294 20.0398 46.8871 20.2386 47.0503 20.4668C47.2135 20.695 47.2908 20.96 47.2908 21.2472C47.2908 21.5858 47.1791 21.895 46.9644 22.1748C46.7497 22.4619 46.4405 22.6754 46.054 22.8226C45.6675 22.9699 45.1693 23.0435 44.5767 23.0435C43.5374 23.0435 42.8159 22.8742 42.4123 22.5281C42.0172 22.1821 41.7939 21.7478 41.7337 21.2177Z" fill="#393950"/>
<path d="M47.7718 21.2177L49.5755 21.122C49.6184 21.3723 49.6957 21.5637 49.8159 21.6962C50.0135 21.9097 50.2883 22.0128 50.6491 22.0128C50.9153 22.0128 51.1301 21.9613 51.2761 21.8508C51.4221 21.7404 51.4994 21.6153 51.4994 21.4754C51.4994 21.3429 51.4307 21.2177 51.2932 21.1073C51.1558 20.9969 50.8294 20.9011 50.3227 20.8054C49.4896 20.6435 48.9055 20.43 48.5448 20.165C48.1926 19.8999 48.0123 19.5613 48.0123 19.149C48.0123 18.8766 48.1067 18.6263 48.2871 18.3834C48.4675 18.1404 48.7423 17.9564 49.1116 17.8165C49.481 17.6766 49.9791 17.6104 50.6147 17.6104C51.3963 17.6104 51.9975 17.7355 52.4012 17.9858C52.8135 18.2361 53.054 18.6337 53.1313 19.1784L51.3448 19.2668C51.2932 19.0312 51.1988 18.8619 51.0442 18.7515C50.8896 18.641 50.6834 18.5895 50.4172 18.5895C50.1939 18.5895 50.0307 18.6263 49.919 18.7073C49.8074 18.7883 49.7558 18.884 49.7558 19.0018C49.7558 19.0827 49.7988 19.1637 49.8932 19.23C49.9791 19.2962 50.1939 19.3625 50.5288 19.4214C51.3534 19.576 51.946 19.7306 52.3067 19.8852C52.6675 20.0398 52.9251 20.2386 53.0883 20.4668C53.2515 20.695 53.3288 20.96 53.3288 21.2472C53.3288 21.5858 53.2172 21.895 53.0024 22.1748C52.7877 22.4619 52.4785 22.6754 52.092 22.8226C51.7055 22.9699 51.2074 23.0435 50.6147 23.0435C49.5755 23.0435 48.854 22.8742 48.4503 22.5281C48.0466 22.1821 47.8233 21.7478 47.7718 21.2177Z" fill="#393950"/>
</svg>
