<svg width="348" height="100" viewBox="0 0 348 100" fill="none" xmlns="http://www.w3.org/2000/svg">
<mask id="mask0_88_46913" style="mask-type:luminance" maskUnits="userSpaceOnUse" x="17" y="31" width="116" height="38">
<path d="M76.9823 43.2814C76.9165 48.4717 81.6078 51.3683 85.1419 53.0903C88.773 54.8573 89.9926 55.9903 89.9788 57.5702C89.9511 59.9887 87.0822 61.0558 84.397 61.0974C79.7126 61.1702 76.9892 59.8328 74.8237 58.821L73.1364 66.7173C75.3088 67.7186 79.3315 68.5918 83.5031 68.6299C93.2946 68.6299 99.701 63.7965 99.7356 56.3021C99.7738 46.7913 86.5798 46.2646 86.6699 42.0133C86.7011 40.7244 87.9311 39.3489 90.6267 38.9989C91.9606 38.8222 95.6437 38.6871 99.8188 40.6101L101.458 32.9702C99.2125 32.1525 96.3263 31.3694 92.7333 31.3694C83.5169 31.3694 77.0343 36.2687 76.9823 43.2814ZM117.205 32.0278C115.417 32.0278 113.91 33.0707 113.238 34.6714L99.2506 68.0686H109.035L110.982 62.6877H122.939L124.069 68.0686H132.693L125.167 32.0278H117.205ZM118.574 41.7638L121.398 55.2973H113.664L118.574 41.7638ZM65.1189 32.0278L57.4062 68.0686H66.73L74.4392 32.0278H65.1189ZM51.3255 32.0278L41.6206 56.5585L37.695 35.7004C37.2342 33.3721 35.4152 32.0278 33.3952 32.0278H17.5299L17.3081 33.0741C20.565 33.7809 24.2654 34.9209 26.5071 36.1405C27.8792 36.8854 28.2707 37.5368 28.7211 39.3073L36.1566 68.0686H46.0105L61.117 32.0278H51.3255Z" fill="white"/>
</mask>
<g mask="url(#mask0_88_46913)">
<path d="M5.22522 35.8195L118.913 -6.04912L144.777 64.1812L31.0899 106.05" fill="url(#paint0_linear_88_46913)"/>
</g>
<path d="M256.964 23.7949H289.05V76.2014H256.964V23.7949Z" fill="#FF5F00"/>
<path d="M260.269 50.0029C260.265 44.9566 261.409 39.9756 263.614 35.4367C265.819 30.8978 269.028 26.92 272.998 23.8043C268.081 19.9404 262.177 17.5377 255.959 16.8708C249.742 16.2038 243.462 17.2996 237.838 20.0327C232.214 22.7659 227.472 27.0262 224.155 32.3268C220.837 37.6274 219.078 43.7543 219.078 50.0074C219.078 56.2606 220.837 62.3875 224.155 67.6881C227.472 72.9887 232.214 77.249 237.838 79.9822C243.462 82.7153 249.742 83.8111 255.959 83.1441C262.177 82.4771 268.081 80.0744 272.998 76.2106C269.027 73.094 265.817 69.1147 263.612 64.5741C261.407 60.0335 260.263 55.0506 260.269 50.0027V50.0029Z" fill="#EB001B"/>
<path d="M323.738 70.6554V69.5816H324.201V69.3594H323.099V69.5816H323.534V70.6555L323.738 70.6554ZM325.876 70.6554V69.3595H325.543L325.154 70.2851L324.765 69.3594H324.432V70.6554H324.673V69.6741L325.034 70.5167H325.284L325.645 69.6741V70.6554H325.876Z" fill="#F79E1B"/>
<path d="M326.922 50.0024C326.922 56.256 325.162 62.3834 321.844 67.6842C318.526 72.9849 313.784 77.2452 308.159 79.9779C302.534 82.7107 296.254 83.8057 290.036 83.1378C283.818 82.4698 277.914 80.0659 272.998 76.2008C276.966 73.0824 280.173 69.1035 282.379 64.5644C284.585 60.0253 285.731 55.0444 285.731 49.9977C285.731 44.951 284.585 39.9701 282.379 35.431C280.173 30.8919 276.966 26.913 272.998 23.7946C277.914 19.9295 283.818 17.5256 290.036 16.8576C296.254 16.1897 302.534 17.2847 308.159 20.0175C313.784 22.7503 318.526 27.0106 321.844 32.3114C325.163 37.6121 326.922 43.7395 326.922 49.9931V50.0024Z" fill="#F79E1B"/>
<defs>
<linearGradient id="paint0_linear_88_46913" x1="27.7602" y1="67.4975" x2="125.005" y2="31.6838" gradientUnits="userSpaceOnUse">
<stop stop-color="white"/>
<stop offset="0.984395" stop-color="white"/>
</linearGradient>
</defs>
</svg>
